<svg viewBox="0 0 512 512" xmlns="http://www.w3.org/2000/svg" xmlns:xlink="http://www.w3.org/1999/xlink" id="Capa_1" overflow="hidden"><g><g><path d="M255.968 5.329C114.624 5.329 0 120.401 0 262.353 0 375.889 73.344 472.209 175.104 506.225 187.904 508.593 192.576 500.657 192.576 493.841 192.576 487.729 192.352 471.569 192.224 450.129 121.024 465.649 105.984 415.665 105.984 415.665 94.368 385.969 77.568 378.065 77.568 378.065 54.304 362.129 79.296 362.449 79.296 362.449 104.992 364.273 118.496 388.945 118.496 388.945 141.344 428.209 178.432 416.881 193.024 410.289 195.328 393.681 201.952 382.353 209.28 375.921 152.448 369.425 92.672 347.377 92.672 248.913 92.672 220.849 102.656 197.905 119.04 179.921 116.384 173.425 107.616 147.281 121.536 111.921 121.536 111.921 143.04 105.009 191.936 138.257 212.352 132.561 234.24 129.713 256.032 129.617 277.76 129.745 299.68 132.561 320.128 138.289 368.992 105.041 390.464 111.953 390.464 111.953 404.416 147.345 395.648 173.457 393.024 179.953 409.44 197.937 419.328 220.881 419.328 248.945 419.328 347.665 359.488 369.393 302.464 375.761 311.648 383.697 319.84 399.377 319.84 423.345 319.84 457.713 319.52 485.425 319.52 493.841 319.52 500.721 324.128 508.721 337.12 506.193 438.72 472.145 512 375.857 512 262.353 512 120.401 397.376 5.329 255.968 5.329Z" stroke-width="2.27556" fill="#70ECFF"/></g></g><g></g><g></g><g></g><g></g><g></g><g></g><g></g><g></g><g></g><g></g><g></g><g></g><g></g><g></g><g></g></svg>