<?xml version="1.0"?>
<svg xmlns="http://www.w3.org/2000/svg" xmlns:xlink="http://www.w3.org/1999/xlink" xmlns:svgjs="http://svgjs.com/svgjs" version="1.1" width="512" height="512" x="0" y="0" viewBox="0 0 88.71 88.709" style="enable-background:new 0 0 512 512" xml:space="preserve"><g>
<g xmlns="http://www.w3.org/2000/svg">
	<path d="M49.044,24.514c0-8.1,6.565-14.666,14.666-14.666s14.666,6.566,14.666,14.666c0,8.1-6.565,14.666-14.666,14.666   S49.044,32.613,49.044,24.514z M69.932,40.18H57.488c-10.354,0-18.777,8.424-18.777,18.777V74.18l0.039,0.236l1.05,0.328   c9.88,3.086,18.466,4.117,25.531,4.117c13.801,0,21.8-3.936,22.294-4.186l0.98-0.498l0.104,0.001V58.958   C88.71,48.604,80.287,40.18,69.932,40.18z M25,39.18c8.1,0,14.666-6.566,14.666-14.666c0-8.1-6.566-14.666-14.666-14.666   s-14.666,6.566-14.666,14.666C10.334,32.614,16.9,39.18,25,39.18z M35.326,74.18V58.958c0-6.061,2.445-11.55,6.385-15.568   c-2.997-2.025-6.607-3.209-10.488-3.209H18.778C8.424,40.18,0,48.604,0,58.958V74.18l0.039,0.236l1.051,0.328   c9.879,3.086,18.465,4.117,25.531,4.117c4.493,0,8.359-0.42,11.563-0.99l-2.422-0.758L35.326,74.18z" fill="#47a4d6" data-original="#000000" style=""/>
</g>
<g xmlns="http://www.w3.org/2000/svg">
</g>
<g xmlns="http://www.w3.org/2000/svg">
</g>
<g xmlns="http://www.w3.org/2000/svg">
</g>
<g xmlns="http://www.w3.org/2000/svg">
</g>
<g xmlns="http://www.w3.org/2000/svg">
</g>
<g xmlns="http://www.w3.org/2000/svg">
</g>
<g xmlns="http://www.w3.org/2000/svg">
</g>
<g xmlns="http://www.w3.org/2000/svg">
</g>
<g xmlns="http://www.w3.org/2000/svg">
</g>
<g xmlns="http://www.w3.org/2000/svg">
</g>
<g xmlns="http://www.w3.org/2000/svg">
</g>
<g xmlns="http://www.w3.org/2000/svg">
</g>
<g xmlns="http://www.w3.org/2000/svg">
</g>
<g xmlns="http://www.w3.org/2000/svg">
</g>
<g xmlns="http://www.w3.org/2000/svg">
</g>
</g></svg>
